<svg width="1113" height="138" viewBox="0 0 1113 138" fill="none" xmlns="http://www.w3.org/2000/svg">
<path d="M361.6 101.867H309.253V70.64H361.6V101.867Z" fill="#58C034"/>
<path d="M20.9866 35.707L0.159912 56.5337V115.067L20.5999 135.507L112.893 136.28V113.72H21.1866V60.5736H111.746V73.9203H23.3199L42.3465 97.4803H113.773L134.093 77.1469V56.5469L113.253 35.707H20.9866Z" fill="#15223A"/>
<path d="M165.88 58.6801H254.827V35.7068H163.867L142.56 57.0134V116.08L163.133 136.64H237.16L259.973 113.84H165.88V58.6801Z" fill="#15223A"/>
<path d="M858.493 58.6801H947.426V35.7068H856.467L835.173 57.0134V116.08L855.733 136.64H929.773L952.587 113.84H858.493V58.6801Z" fill="#15223A"/>
<path d="M569.853 46.8665V35.9598H546.093V137.146H569.853V59.2398H673V35.9598H579.04L569.853 46.8665Z" fill="#15223A"/>
<path d="M800.267 113.547H710.4L710.413 35.9599H686.987V115.56L708.507 137.093H802.293L822.933 116.44V35.9599H800.267V113.547Z" fill="#15223A"/>
<path d="M1068.55 69.2533L1100.76 37.04H1066.64L1046.77 56.8933H999.467V2.54021e-05H975.8V137.093H1000.53V80.44H1050.44L1091.24 121.24V137.093H1112.84V113.547L1068.55 69.2533Z" fill="#15223A"/>
<path d="M381 112.88H289.84V59.627H381V112.88ZM289.707 35.9603L268.053 57.6004L267.88 115.24L289.267 136.627H382.493L403.373 115.734V57.147L382.187 35.9603H289.707Z" fill="#15223A"/>
<path d="M456.187 2.90652L434.893 21.4665V35.9598H402.413V39.8665L421.226 58.6798H434.12V115.56L455.707 137.146H515.026V114.4H456.36V57.7332H516.92V35.9598H456.187V2.90652Z" fill="#15223A"/>
</svg>
